<svg width="140" height="195" viewBox="0 0 140 195" fill="none" xmlns="http://www.w3.org/2000/svg">
<path d="M108 0H32C14.3269 0 0 14.3269 0 32V108C0 125.673 14.3269 140 32 140H108C125.673 140 140 125.673 140 108V32C140 14.3269 125.673 0 108 0Z" fill="#165823"/>
<path d="M70 28C98 48 98 98 70 118C42 98 42 48 70 28Z" fill="white"/>
<path d="M69.9996 34C63.9996 58 75.9996 88 69.9996 112" stroke="#165823" stroke-width="3" stroke-linecap="round"/>
<path d="M23.0539 169V154.818H25.159V156.96H25.3067C25.5653 156.259 26.0331 155.689 26.7101 155.252C27.3872 154.815 28.1505 154.597 28.9999 154.597C29.1599 154.597 29.36 154.6 29.6001 154.606C29.8401 154.612 30.0217 154.621 30.1448 154.634V156.849C30.0709 156.831 29.9017 156.803 29.637 156.766C29.3785 156.723 29.1046 156.702 28.8153 156.702C28.1259 156.702 27.5103 156.846 26.9687 157.136C26.4331 157.419 26.0084 157.813 25.6945 158.317C25.3867 158.816 25.2329 159.385 25.2329 160.026V169H23.0539ZM38.2421 169.295C36.8756 169.295 35.6969 168.994 34.7059 168.391C33.721 167.781 32.9608 166.932 32.4253 165.842C31.896 164.747 31.6313 163.473 31.6313 162.02C31.6313 160.567 31.896 159.287 32.4253 158.179C32.9608 157.065 33.7056 156.197 34.6597 155.575C35.6199 154.947 36.7402 154.634 38.0205 154.634C38.7591 154.634 39.4885 154.757 40.2087 155.003C40.9289 155.249 41.5844 155.649 42.1753 156.203C42.7662 156.751 43.2371 157.477 43.588 158.382C43.9388 159.287 44.1143 160.401 44.1143 161.724V162.648H33.1824V160.764H41.8983C41.8983 159.964 41.7383 159.25 41.4182 158.622C41.1043 157.994 40.655 157.499 40.0702 157.136C39.4916 156.772 38.8084 156.591 38.0205 156.591C37.1526 156.591 36.4017 156.806 35.7677 157.237C35.1398 157.662 34.6566 158.216 34.3181 158.899C33.9796 159.582 33.8103 160.315 33.8103 161.097V162.352C33.8103 163.423 33.9949 164.331 34.3643 165.076C34.7397 165.815 35.2599 166.378 35.9246 166.766C36.5894 167.147 37.3619 167.338 38.2421 167.338C38.8145 167.338 39.3316 167.258 39.7932 167.098C40.261 166.932 40.6642 166.686 41.0028 166.359C41.3413 166.027 41.6029 165.615 41.7876 165.122L43.8927 165.713C43.6711 166.427 43.2987 167.055 42.7755 167.597C42.2523 168.132 41.606 168.551 40.8366 168.852C40.0671 169.148 39.2023 169.295 38.2421 169.295ZM53.1903 169.295C51.8607 169.295 50.7158 168.982 49.7556 168.354C48.7954 167.726 48.0567 166.861 47.5397 165.759C47.0226 164.657 46.7641 163.399 46.7641 161.983C46.7641 160.543 47.0288 159.272 47.5581 158.17C48.0937 157.062 48.8385 156.197 49.7925 155.575C50.7528 154.947 51.873 154.634 53.1533 154.634C54.1505 154.634 55.0492 154.818 55.8493 155.188C56.6495 155.557 57.3051 156.074 57.816 156.739C58.3269 157.403 58.6439 158.179 58.767 159.065H56.588C56.4218 158.419 56.0525 157.847 55.48 157.348C54.9137 156.843 54.1505 156.591 53.1903 156.591C52.3408 156.591 51.596 156.812 50.9559 157.256C50.3219 157.693 49.8264 158.311 49.4694 159.112C49.1185 159.906 48.9431 160.838 48.9431 161.909C48.9431 163.005 49.1154 163.959 49.4601 164.771C49.811 165.584 50.3034 166.215 50.9374 166.664C51.5776 167.113 52.3285 167.338 53.1903 167.338C53.7565 167.338 54.2705 167.24 54.7322 167.043C55.1938 166.846 55.5847 166.562 55.9047 166.193C56.2248 165.824 56.4526 165.381 56.588 164.864H58.767C58.6439 165.701 58.3392 166.455 57.8529 167.126C57.3728 167.79 56.7357 168.32 55.9417 168.714C55.1538 169.102 54.2367 169.295 53.1903 169.295ZM67.8983 169.295C66.5319 169.295 65.3531 168.994 64.3621 168.391C63.3773 167.781 62.6171 166.932 62.0816 165.842C61.5522 164.747 61.2876 163.473 61.2876 162.02C61.2876 160.567 61.5522 159.287 62.0816 158.179C62.6171 157.065 63.3619 156.197 64.316 155.575C65.2762 154.947 66.3965 154.634 67.6768 154.634C68.4154 154.634 69.1448 154.757 69.865 155.003C70.5851 155.249 71.2407 155.649 71.8316 156.203C72.4225 156.751 72.8934 157.477 73.2442 158.382C73.5951 159.287 73.7705 160.401 73.7705 161.724V162.648H62.8387V160.764H71.5546C71.5546 159.964 71.3946 159.25 71.0745 158.622C70.7606 157.994 70.3112 157.499 69.7265 157.136C69.1479 156.772 68.4646 156.591 67.6768 156.591C66.8089 156.591 66.0579 156.806 65.4239 157.237C64.7961 157.662 64.3129 158.216 63.9743 158.899C63.6358 159.582 63.4665 160.315 63.4665 161.097V162.352C63.4665 163.423 63.6512 164.331 64.0205 165.076C64.396 165.815 64.9161 166.378 65.5809 166.766C66.2457 167.147 67.0181 167.338 67.8983 167.338C68.4708 167.338 68.9878 167.258 69.4495 167.098C69.9173 166.932 70.3205 166.686 70.659 166.359C70.9975 166.027 71.2591 165.615 71.4438 165.122L73.5489 165.713C73.3273 166.427 72.9549 167.055 72.4317 167.597C71.9085 168.132 71.2622 168.551 70.4928 168.852C69.7234 169.148 68.8586 169.295 67.8983 169.295ZM77.0851 169V154.818H79.2641V169H77.0851ZM78.1931 152.455C77.7684 152.455 77.4021 152.31 77.0944 152.021C76.7928 151.731 76.642 151.384 76.642 150.977C76.642 150.571 76.7928 150.223 77.0944 149.934C77.4021 149.645 77.7684 149.5 78.1931 149.5C78.6178 149.5 78.981 149.645 79.2826 149.934C79.5903 150.223 79.7442 150.571 79.7442 150.977C79.7442 151.384 79.5903 151.731 79.2826 152.021C78.981 152.31 78.6178 152.455 78.1931 152.455ZM89.4227 154.818V156.665H82.0732V154.818H89.4227ZM84.2153 151.42H86.3943V164.938C86.3943 165.553 86.4835 166.015 86.662 166.322C86.8467 166.624 87.0806 166.827 87.3637 166.932C87.653 167.03 87.9577 167.08 88.2778 167.08C88.5178 167.08 88.7148 167.067 88.8687 167.043C89.0226 167.012 89.1457 166.987 89.238 166.969L89.6812 168.926C89.5335 168.982 89.3273 169.037 89.0626 169.092C88.7979 169.154 88.4624 169.185 88.0562 169.185C87.4407 169.185 86.8374 169.052 86.2465 168.788C85.6618 168.523 85.1755 168.12 84.7877 167.578C84.4061 167.036 84.2153 166.353 84.2153 165.528V151.42ZM96.8737 169.332C95.975 169.332 95.1594 169.163 94.4269 168.825C93.6945 168.48 93.1128 167.984 92.6819 167.338C92.251 166.686 92.0356 165.898 92.0356 164.974C92.0356 164.162 92.1956 163.503 92.5157 162.999C92.8358 162.488 93.2636 162.088 93.7991 161.798C94.3346 161.509 94.9255 161.294 95.5718 161.152C96.2243 161.004 96.8798 160.887 97.5384 160.801C98.4002 160.69 99.0988 160.607 99.6343 160.552C100.176 160.49 100.57 160.389 100.816 160.247C101.069 160.106 101.195 159.859 101.195 159.509V159.435C101.195 158.524 100.945 157.816 100.447 157.311C99.9544 156.806 99.2065 156.554 98.2032 156.554C97.163 156.554 96.3474 156.782 95.7565 157.237C95.1656 157.693 94.7501 158.179 94.51 158.696L92.4419 157.957C92.8112 157.096 93.3036 156.425 93.9191 155.945C94.5408 155.458 95.2179 155.12 95.9504 154.929C96.689 154.732 97.4153 154.634 98.1294 154.634C98.5848 154.634 99.108 154.689 99.699 154.8C100.296 154.904 100.872 155.123 101.426 155.455C101.986 155.788 102.45 156.289 102.82 156.96C103.189 157.631 103.374 158.53 103.374 159.656V169H101.195V167.08H101.084C100.936 167.387 100.69 167.717 100.345 168.067C100.001 168.418 99.542 168.717 98.9695 168.963C98.3971 169.209 97.6985 169.332 96.8737 169.332ZM97.2061 167.375C98.0678 167.375 98.7941 167.206 99.385 166.867C99.9821 166.529 100.431 166.092 100.733 165.556C101.041 165.021 101.195 164.457 101.195 163.866V161.872C101.102 161.983 100.899 162.085 100.585 162.177C100.278 162.263 99.9205 162.34 99.5143 162.408C99.1142 162.469 98.7233 162.525 98.3417 162.574C97.9662 162.617 97.6615 162.654 97.4276 162.685C96.8614 162.759 96.332 162.879 95.8396 163.045C95.3533 163.205 94.9594 163.448 94.6578 163.774C94.3623 164.094 94.2146 164.531 94.2146 165.085C94.2146 165.842 94.4946 166.415 95.0548 166.803C95.6211 167.184 96.3382 167.375 97.2061 167.375ZM117.396 157.994L115.439 158.548C115.316 158.222 115.134 157.905 114.894 157.597C114.66 157.283 114.34 157.025 113.934 156.822C113.528 156.619 113.007 156.517 112.373 156.517C111.506 156.517 110.782 156.717 110.204 157.117C109.631 157.511 109.345 158.013 109.345 158.622C109.345 159.164 109.542 159.592 109.936 159.906C110.33 160.219 110.945 160.481 111.783 160.69L113.888 161.207C115.156 161.515 116.101 161.986 116.722 162.62C117.344 163.248 117.655 164.057 117.655 165.048C117.655 165.861 117.421 166.587 116.953 167.227C116.491 167.867 115.845 168.372 115.014 168.741C114.183 169.111 113.217 169.295 112.115 169.295C110.668 169.295 109.471 168.982 108.523 168.354C107.575 167.726 106.975 166.809 106.723 165.602L108.791 165.085C108.988 165.848 109.36 166.421 109.908 166.803C110.462 167.184 111.186 167.375 112.078 167.375C113.094 167.375 113.9 167.16 114.497 166.729C115.1 166.292 115.402 165.768 115.402 165.159C115.402 164.667 115.23 164.254 114.885 163.922C114.54 163.583 114.011 163.331 113.297 163.165L110.933 162.611C109.634 162.303 108.68 161.826 108.071 161.18C107.468 160.527 107.166 159.712 107.166 158.733C107.166 157.933 107.391 157.225 107.84 156.609C108.296 155.994 108.914 155.511 109.696 155.16C110.484 154.809 111.376 154.634 112.373 154.634C113.777 154.634 114.879 154.941 115.679 155.557C116.485 156.172 117.058 156.985 117.396 157.994Z" fill="#FF788D"/>
<path d="M28.9716 192.153C28.5568 192.153 28.1804 192.075 27.8423 191.919C27.5043 191.76 27.2358 191.531 27.0369 191.233C26.8381 190.932 26.7386 190.568 26.7386 190.142C26.7386 189.767 26.8125 189.463 26.9602 189.23C27.108 188.994 27.3054 188.81 27.5526 188.676C27.7997 188.543 28.0724 188.443 28.3707 188.378C28.6719 188.31 28.9744 188.256 29.2784 188.216C29.6761 188.165 29.9986 188.126 30.2457 188.101C30.4957 188.072 30.6776 188.026 30.7912 187.96C30.9077 187.895 30.9659 187.781 30.9659 187.619V187.585C30.9659 187.165 30.8509 186.838 30.6207 186.605C30.3935 186.372 30.0483 186.256 29.5852 186.256C29.1051 186.256 28.7287 186.361 28.456 186.571C28.1832 186.781 27.9915 187.006 27.8807 187.244L26.9261 186.903C27.0966 186.506 27.3239 186.196 27.608 185.974C27.8949 185.75 28.2074 185.594 28.5455 185.506C28.8864 185.415 29.2216 185.369 29.5511 185.369C29.7614 185.369 30.0028 185.395 30.2756 185.446C30.5511 185.494 30.8168 185.595 31.0724 185.749C31.331 185.902 31.5455 186.134 31.7159 186.443C31.8864 186.753 31.9716 187.168 31.9716 187.688V192H30.9659V191.114H30.9148C30.8466 191.256 30.733 191.408 30.5739 191.57C30.4148 191.732 30.2031 191.869 29.9389 191.983C29.6747 192.097 29.3523 192.153 28.9716 192.153ZM29.125 191.25C29.5227 191.25 29.858 191.172 30.1307 191.016C30.4063 190.859 30.6136 190.658 30.7528 190.411C30.8949 190.163 30.9659 189.903 30.9659 189.631V188.71C30.9233 188.761 30.8295 188.808 30.6847 188.851C30.5426 188.891 30.3778 188.926 30.1903 188.957C30.0057 188.986 29.8253 189.011 29.6491 189.034C29.4759 189.054 29.3352 189.071 29.2273 189.085C28.9659 189.119 28.7216 189.175 28.4943 189.251C28.2699 189.325 28.0881 189.437 27.9489 189.588C27.8125 189.736 27.7443 189.937 27.7443 190.193C27.7443 190.543 27.8736 190.807 28.1321 190.986C28.3935 191.162 28.7244 191.25 29.125 191.25ZM33.8072 194.455V185.455H34.7788V186.494H34.8981C34.9719 186.381 35.0742 186.236 35.2049 186.06C35.3384 185.881 35.5288 185.722 35.7759 185.582C36.0259 185.44 36.364 185.369 36.7901 185.369C37.3413 185.369 37.8271 185.507 38.2475 185.783C38.668 186.058 38.9961 186.449 39.2319 186.955C39.4677 187.46 39.5856 188.057 39.5856 188.744C39.5856 189.438 39.4677 190.038 39.2319 190.547C38.9961 191.053 38.6694 191.445 38.2518 191.723C37.8342 191.999 37.3526 192.136 36.8072 192.136C36.3867 192.136 36.0501 192.067 35.7972 191.928C35.5444 191.786 35.3498 191.625 35.2134 191.446C35.0771 191.264 34.9719 191.114 34.8981 190.994H34.8129V194.455H33.8072ZM34.7958 188.727C34.7958 189.222 34.8683 189.658 35.0131 190.036C35.158 190.411 35.3697 190.705 35.6481 190.918C35.9265 191.128 36.2674 191.233 36.6708 191.233C37.0913 191.233 37.4421 191.122 37.7234 190.901C38.0075 190.676 38.2205 190.375 38.3626 189.997C38.5075 189.616 38.5799 189.193 38.5799 188.727C38.5799 188.267 38.5089 187.852 38.3668 187.483C38.2276 187.111 38.016 186.817 37.7319 186.601C37.4506 186.382 37.0969 186.273 36.6708 186.273C36.2617 186.273 35.918 186.376 35.6396 186.584C35.3612 186.788 35.1509 187.075 35.0089 187.445C34.8668 187.811 34.7958 188.239 34.7958 188.727ZM41.1197 194.455V185.455H42.0913V186.494H42.2106C42.2844 186.381 42.3867 186.236 42.5174 186.06C42.6509 185.881 42.8413 185.722 43.0884 185.582C43.3384 185.44 43.6765 185.369 44.1026 185.369C44.6538 185.369 45.1396 185.507 45.56 185.783C45.9805 186.058 46.3086 186.449 46.5444 186.955C46.7802 187.46 46.8981 188.057 46.8981 188.744C46.8981 189.438 46.7802 190.038 46.5444 190.547C46.3086 191.053 45.9819 191.445 45.5643 191.723C45.1467 191.999 44.6651 192.136 44.1197 192.136C43.6992 192.136 43.3626 192.067 43.1097 191.928C42.8569 191.786 42.6623 191.625 42.5259 191.446C42.3896 191.264 42.2844 191.114 42.2106 190.994H42.1254V194.455H41.1197ZM42.1083 188.727C42.1083 189.222 42.1808 189.658 42.3256 190.036C42.4705 190.411 42.6822 190.705 42.9606 190.918C43.239 191.128 43.5799 191.233 43.9833 191.233C44.4038 191.233 44.7546 191.122 45.0359 190.901C45.32 190.676 45.533 190.375 45.6751 189.997C45.82 189.616 45.8924 189.193 45.8924 188.727C45.8924 188.267 45.8214 187.852 45.6793 187.483C45.5401 187.111 45.3285 186.817 45.0444 186.601C44.7631 186.382 44.4094 186.273 43.9833 186.273C43.5742 186.273 43.2305 186.376 42.9521 186.584C42.6737 186.788 42.4634 187.075 42.3214 187.445C42.1793 187.811 42.1083 188.239 42.1083 188.727ZM54.2788 192.136C53.7333 192.136 53.2518 191.999 52.8342 191.723C52.4165 191.445 52.0898 191.053 51.854 190.547C51.6183 190.038 51.5004 189.438 51.5004 188.744C51.5004 188.057 51.6183 187.46 51.854 186.955C52.0898 186.449 52.418 186.058 52.8384 185.783C53.2589 185.507 53.7447 185.369 54.2958 185.369C54.7219 185.369 55.0586 185.44 55.3058 185.582C55.5558 185.722 55.7461 185.881 55.8768 186.06C56.0103 186.236 56.114 186.381 56.1879 186.494H56.2731V183.273H57.2788V192H56.3072V190.994H56.1879C56.114 191.114 56.0089 191.264 55.8725 191.446C55.7362 191.625 55.5415 191.786 55.2887 191.928C55.0359 192.067 54.6992 192.136 54.2788 192.136ZM54.4151 191.233C54.8185 191.233 55.1594 191.128 55.4379 190.918C55.7163 190.705 55.9279 190.411 56.0728 190.036C56.2177 189.658 56.2901 189.222 56.2901 188.727C56.2901 188.239 56.2191 187.811 56.0771 187.445C55.935 187.075 55.7248 186.788 55.4464 186.584C55.168 186.376 54.8242 186.273 54.4151 186.273C53.989 186.273 53.6339 186.382 53.3498 186.601C53.0685 186.817 52.8569 187.111 52.7148 187.483C52.5756 187.852 52.506 188.267 52.506 188.727C52.506 189.193 52.5771 189.616 52.7191 189.997C52.864 190.375 53.0771 190.676 53.3583 190.901C53.6424 191.122 53.9947 191.233 54.4151 191.233ZM62.0046 192.136C61.3739 192.136 60.8299 191.997 60.3725 191.719C59.918 191.438 59.5671 191.045 59.32 190.543C59.0756 190.037 58.9535 189.449 58.9535 188.778C58.9535 188.108 59.0756 187.517 59.32 187.006C59.5671 186.491 59.9109 186.091 60.3512 185.804C60.7944 185.514 61.3114 185.369 61.9023 185.369C62.2433 185.369 62.5799 185.426 62.9123 185.54C63.2447 185.653 63.5472 185.838 63.82 186.094C64.0927 186.347 64.31 186.682 64.4719 187.099C64.6339 187.517 64.7148 188.031 64.7148 188.642V189.068H59.6694V188.199H63.6921C63.6921 187.83 63.6183 187.5 63.4705 187.21C63.3256 186.92 63.1183 186.692 62.8484 186.524C62.5813 186.357 62.266 186.273 61.9023 186.273C61.5018 186.273 61.1552 186.372 60.8626 186.571C60.5728 186.767 60.3498 187.023 60.1935 187.338C60.0373 187.653 59.9592 187.991 59.9592 188.352V188.932C59.9592 189.426 60.0444 189.845 60.2148 190.189C60.3881 190.53 60.6282 190.79 60.935 190.969C61.2418 191.145 61.5984 191.233 62.0046 191.233C62.2688 191.233 62.5075 191.196 62.7205 191.122C62.9364 191.045 63.1225 190.932 63.2788 190.781C63.435 190.628 63.5558 190.437 63.641 190.21L64.6126 190.483C64.5103 190.812 64.3384 191.102 64.0969 191.352C63.8555 191.599 63.5572 191.793 63.2021 191.932C62.8469 192.068 62.4478 192.136 62.0046 192.136ZM69.6197 192V185.455H70.5913V186.443H70.6594C70.7788 186.119 70.9947 185.857 71.3072 185.655C71.6197 185.453 71.9719 185.352 72.364 185.352C72.4379 185.352 72.5302 185.354 72.641 185.357C72.7518 185.359 72.8356 185.364 72.8924 185.369V186.392C72.8583 186.384 72.7802 186.371 72.658 186.354C72.5387 186.334 72.4123 186.324 72.2788 186.324C71.9606 186.324 71.6765 186.391 71.4265 186.524C71.1793 186.655 70.9833 186.837 70.8384 187.07C70.6964 187.3 70.6254 187.562 70.6254 187.858V192H69.6197ZM76.6296 192.136C75.9989 192.136 75.4549 191.997 74.9975 191.719C74.543 191.438 74.1921 191.045 73.945 190.543C73.7006 190.037 73.5785 189.449 73.5785 188.778C73.5785 188.108 73.7006 187.517 73.945 187.006C74.1921 186.491 74.5359 186.091 74.9762 185.804C75.4194 185.514 75.9364 185.369 76.5273 185.369C76.8683 185.369 77.2049 185.426 77.5373 185.54C77.8697 185.653 78.1722 185.838 78.445 186.094C78.7177 186.347 78.935 186.682 79.0969 187.099C79.2589 187.517 79.3398 188.031 79.3398 188.642V189.068H74.2944V188.199H78.3171C78.3171 187.83 78.2433 187.5 78.0955 187.21C77.9506 186.92 77.7433 186.692 77.4734 186.524C77.2063 186.357 76.891 186.273 76.5273 186.273C76.1268 186.273 75.7802 186.372 75.4876 186.571C75.1978 186.767 74.9748 187.023 74.8185 187.338C74.6623 187.653 74.5842 187.991 74.5842 188.352V188.932C74.5842 189.426 74.6694 189.845 74.8398 190.189C75.0131 190.53 75.2532 190.79 75.56 190.969C75.8668 191.145 76.2234 191.233 76.6296 191.233C76.8938 191.233 77.1325 191.196 77.3455 191.122C77.5614 191.045 77.7475 190.932 77.9038 190.781C78.06 190.628 78.1808 190.437 78.266 190.21L79.2376 190.483C79.1353 190.812 78.9634 191.102 78.7219 191.352C78.4805 191.599 78.1822 191.793 77.8271 191.932C77.4719 192.068 77.0728 192.136 76.6296 192.136ZM83.5288 192.136C82.9151 192.136 82.3867 191.991 81.9435 191.702C81.5004 191.412 81.1594 191.013 80.9208 190.504C80.6822 189.996 80.5629 189.415 80.5629 188.761C80.5629 188.097 80.685 187.51 80.9293 187.001C81.1765 186.49 81.5202 186.091 81.9606 185.804C82.4038 185.514 82.9208 185.369 83.5117 185.369C83.9719 185.369 84.3867 185.455 84.756 185.625C85.1254 185.795 85.4279 186.034 85.6637 186.341C85.8995 186.648 86.0458 187.006 86.1026 187.415H85.0969C85.0202 187.116 84.8498 186.852 84.5856 186.622C84.3242 186.389 83.9719 186.273 83.5288 186.273C83.1367 186.273 82.793 186.375 82.4975 186.58C82.2049 186.781 81.9762 187.067 81.8114 187.436C81.6495 187.803 81.5685 188.233 81.5685 188.727C81.5685 189.233 81.6481 189.673 81.8072 190.048C81.9691 190.423 82.1964 190.714 82.489 190.922C82.7844 191.129 83.131 191.233 83.5288 191.233C83.7901 191.233 84.0273 191.188 84.2404 191.097C84.4535 191.006 84.6339 190.875 84.7816 190.705C84.9293 190.534 85.0344 190.33 85.0969 190.091H86.1026C86.0458 190.477 85.9052 190.825 85.6808 191.135C85.4592 191.442 85.1651 191.686 84.7987 191.868C84.435 192.047 84.0117 192.136 83.5288 192.136ZM90.3171 192.136C89.6864 192.136 89.1424 191.997 88.685 191.719C88.2305 191.438 87.8796 191.045 87.6325 190.543C87.3881 190.037 87.266 189.449 87.266 188.778C87.266 188.108 87.3881 187.517 87.6325 187.006C87.8796 186.491 88.2234 186.091 88.6637 185.804C89.1069 185.514 89.6239 185.369 90.2148 185.369C90.5558 185.369 90.8924 185.426 91.2248 185.54C91.5572 185.653 91.8597 185.838 92.1325 186.094C92.4052 186.347 92.6225 186.682 92.7844 187.099C92.9464 187.517 93.0273 188.031 93.0273 188.642V189.068H87.9819V188.199H92.0046C92.0046 187.83 91.9308 187.5 91.783 187.21C91.6381 186.92 91.4308 186.692 91.1609 186.524C90.8938 186.357 90.5785 186.273 90.2148 186.273C89.8143 186.273 89.4677 186.372 89.1751 186.571C88.8853 186.767 88.6623 187.023 88.506 187.338C88.3498 187.653 88.2717 187.991 88.2717 188.352V188.932C88.2717 189.426 88.3569 189.845 88.5273 190.189C88.7006 190.53 88.9407 190.79 89.2475 190.969C89.5543 191.145 89.9109 191.233 90.3171 191.233C90.5813 191.233 90.82 191.196 91.033 191.122C91.2489 191.045 91.435 190.932 91.5913 190.781C91.7475 190.628 91.8683 190.437 91.9535 190.21L92.9251 190.483C92.8228 190.812 92.6509 191.102 92.4094 191.352C92.168 191.599 91.8697 191.793 91.5146 191.932C91.1594 192.068 90.7603 192.136 90.3171 192.136ZM94.5572 192V185.455H95.5629V192H94.5572ZM95.0685 184.364C94.8725 184.364 94.7035 184.297 94.5614 184.163C94.4222 184.03 94.3526 183.869 94.3526 183.682C94.3526 183.494 94.4222 183.334 94.5614 183.2C94.7035 183.067 94.8725 183 95.0685 183C95.2646 183 95.4322 183.067 95.5714 183.2C95.7134 183.334 95.7844 183.494 95.7844 183.682C95.7844 183.869 95.7134 184.03 95.5714 184.163C95.4322 184.297 95.2646 184.364 95.0685 184.364ZM100.251 185.455V186.307H96.8594V185.455H100.251ZM97.848 183.886H98.8537V190.125C98.8537 190.409 98.8949 190.622 98.9773 190.764C99.0625 190.903 99.1705 190.997 99.3011 191.045C99.4347 191.091 99.5753 191.114 99.723 191.114C99.8338 191.114 99.9247 191.108 99.9957 191.097C100.067 191.082 100.124 191.071 100.166 191.062L100.371 191.966C100.303 191.991 100.207 192.017 100.085 192.043C99.9631 192.071 99.8082 192.085 99.6207 192.085C99.3366 192.085 99.0582 192.024 98.7855 191.902C98.5156 191.78 98.2912 191.594 98.1122 191.344C97.9361 191.094 97.848 190.778 97.848 190.398V183.886ZM103.69 192.153C103.276 192.153 102.899 192.075 102.561 191.919C102.223 191.76 101.955 191.531 101.756 191.233C101.557 190.932 101.457 190.568 101.457 190.142C101.457 189.767 101.531 189.463 101.679 189.23C101.827 188.994 102.024 188.81 102.271 188.676C102.518 188.543 102.791 188.443 103.089 188.378C103.391 188.31 103.693 188.256 103.997 188.216C104.395 188.165 104.717 188.126 104.964 188.101C105.214 188.072 105.396 188.026 105.51 187.96C105.626 187.895 105.685 187.781 105.685 187.619V187.585C105.685 187.165 105.57 186.838 105.339 186.605C105.112 186.372 104.767 186.256 104.304 186.256C103.824 186.256 103.447 186.361 103.175 186.571C102.902 186.781 102.71 187.006 102.599 187.244L101.645 186.903C101.815 186.506 102.043 186.196 102.327 185.974C102.614 185.75 102.926 185.594 103.264 185.506C103.605 185.415 103.94 185.369 104.27 185.369C104.48 185.369 104.722 185.395 104.994 185.446C105.27 185.494 105.536 185.595 105.791 185.749C106.05 185.902 106.264 186.134 106.435 186.443C106.605 186.753 106.69 187.168 106.69 187.688V192H105.685V191.114H105.634C105.565 191.256 105.452 191.408 105.293 191.57C105.134 191.732 104.922 191.869 104.658 191.983C104.393 192.097 104.071 192.153 103.69 192.153ZM103.844 191.25C104.241 191.25 104.577 191.172 104.849 191.016C105.125 190.859 105.332 190.658 105.472 190.411C105.614 190.163 105.685 189.903 105.685 189.631V188.71C105.642 188.761 105.548 188.808 105.403 188.851C105.261 188.891 105.097 188.926 104.909 188.957C104.724 188.986 104.544 189.011 104.368 189.034C104.195 189.054 104.054 189.071 103.946 189.085C103.685 189.119 103.44 189.175 103.213 189.251C102.989 189.325 102.807 189.437 102.668 189.588C102.531 189.736 102.463 189.937 102.463 190.193C102.463 190.543 102.592 190.807 102.851 190.986C103.112 191.162 103.443 191.25 103.844 191.25ZM113.162 186.92L112.259 187.176C112.202 187.026 112.118 186.879 112.007 186.737C111.9 186.592 111.752 186.473 111.564 186.379C111.377 186.286 111.137 186.239 110.844 186.239C110.444 186.239 110.11 186.331 109.843 186.516C109.578 186.697 109.446 186.929 109.446 187.21C109.446 187.46 109.537 187.658 109.719 187.803C109.901 187.947 110.185 188.068 110.571 188.165L111.543 188.403C112.128 188.545 112.564 188.763 112.851 189.055C113.138 189.345 113.282 189.719 113.282 190.176C113.282 190.551 113.174 190.886 112.958 191.182C112.745 191.477 112.446 191.71 112.063 191.881C111.679 192.051 111.233 192.136 110.725 192.136C110.057 192.136 109.505 191.991 109.067 191.702C108.63 191.412 108.353 190.989 108.236 190.432L109.191 190.193C109.282 190.545 109.453 190.81 109.706 190.986C109.962 191.162 110.296 191.25 110.708 191.25C111.176 191.25 111.549 191.151 111.824 190.952C112.103 190.75 112.242 190.509 112.242 190.227C112.242 190 112.162 189.81 112.003 189.656C111.844 189.5 111.6 189.384 111.27 189.307L110.179 189.051C109.58 188.909 109.14 188.689 108.858 188.391C108.58 188.089 108.441 187.713 108.441 187.261C108.441 186.892 108.544 186.565 108.752 186.281C108.962 185.997 109.248 185.774 109.608 185.612C109.972 185.45 110.384 185.369 110.844 185.369C111.492 185.369 112 185.511 112.37 185.795C112.742 186.08 113.006 186.455 113.162 186.92Z" fill="#FF788D"/>
</svg>
